{
	"patcher" : 	{
		"fileversion" : 1,
		"appversion" : 		{
			"major" : 6,
			"minor" : 1,
			"revision" : 9,
			"architecture" : "x86"
		}
,
		"rect" : [ 516.0, 114.0, 286.0, 434.0 ],
		"bglocked" : 0,
		"openinpresentation" : 1,
		"default_fontsize" : 12.0,
		"default_fontface" : 0,
		"default_fontname" : "Arial",
		"gridonopen" : 0,
		"gridsize" : [ 15.0, 15.0 ],
		"gridsnaponopen" : 0,
		"statusbarvisible" : 2,
		"toolbarvisible" : 1,
		"boxanimatetime" : 200,
		"imprint" : 0,
		"enablehscroll" : 1,
		"enablevscroll" : 1,
		"devicewidth" : 0.0,
		"description" : "",
		"digest" : "",
		"tags" : "",
		"boxes" : [ 			{
				"box" : 				{
					"fontface" : 1,
					"fontname" : "Arial",
					"fontsize" : 12.0,
					"frgb" : 0.0,
					"id" : "obj-49",
					"maxclass" : "comment",
					"numinlets" : 1,
					"numoutlets" : 0,
					"patching_rect" : [ 30.0, 375.0, 225.0, 20.0 ],
					"text" : "Credits",
					"textcolor" : [ 0.2, 0.286275, 0.298039, 1.0 ]
				}

			}
, 			{
				"box" : 				{
					"fontname" : "Arial",
					"fontsize" : 12.0,
					"frgb" : 0.0,
					"id" : "obj-55",
					"maxclass" : "comment",
					"numinlets" : 1,
					"numoutlets" : 0,
					"patching_rect" : [ 30.0, 390.0, 225.0, 20.0 ],
					"text" : "Chris Swithinbank",
					"textcolor" : [ 0.2, 0.286275, 0.298039, 1.0 ]
				}

			}
, 			{
				"box" : 				{
					"bgcolor" : [ 0.25, 0.25, 0.25, 1.0 ],
					"fontface" : 1,
					"fontname" : "Arial",
					"fontsize" : 10.0,
					"frgb" : 0.0,
					"id" : "obj-50",
					"maxclass" : "comment",
					"numinlets" : 1,
					"numoutlets" : 0,
					"patching_rect" : [ 15.0, 270.0, 255.0, 18.0 ],
					"text" : "U T I L I T I E S",
					"textcolor" : [ 0.75, 0.75, 0.75, 1.0 ],
					"textjustification" : 1
				}

			}
, 			{
				"box" : 				{
					"color" : [ 1.0, 0.611765, 0.611765, 1.0 ],
					"fontname" : "Arial",
					"fontsize" : 12.0,
					"id" : "obj-69",
					"maxclass" : "newobj",
					"numinlets" : 1,
					"numoutlets" : 1,
					"outlettype" : [ "bang" ],
					"patching_rect" : [ 30.0, 300.0, 60.0, 20.0 ],
					"text" : "loadbang"
				}

			}
, 			{
				"box" : 				{
					"fontname" : "Arial",
					"fontsize" : 12.0,
					"id" : "obj-68",
					"linecount" : 2,
					"maxclass" : "message",
					"numinlets" : 2,
					"numoutlets" : 1,
					"outlettype" : [ "" ],
					"patching_rect" : [ 30.0, 330.0, 164.0, 31.0 ],
					"text" : ";\rmax sortpatcherdictonsave 1"
				}

			}
, 			{
				"box" : 				{
					"bgcolor" : [ 0.101961, 0.121569, 0.172549, 0.08 ],
					"id" : "obj-75",
					"maxclass" : "panel",
					"numinlets" : 1,
					"numoutlets" : 0,
					"patching_rect" : [ 15.0, 270.0, 255.0, 150.0 ],
					"rounded" : 0
				}

			}
, 			{
				"box" : 				{
					"fontface" : 1,
					"fontname" : "Arial",
					"fontsize" : 12.0,
					"frgb" : 0.0,
					"id" : "obj-74",
					"maxclass" : "comment",
					"numinlets" : 1,
					"numoutlets" : 0,
					"patching_rect" : [ 30.0, 60.0, 198.0, 20.0 ],
					"text" : "int Sets Toggle, bang Reverses It",
					"textcolor" : [ 0.2, 0.286275, 0.298039, 1.0 ]
				}

			}
, 			{
				"box" : 				{
					"fontface" : 1,
					"fontname" : "Arial",
					"fontsize" : 12.0,
					"frgb" : 0.0,
					"id" : "obj-46",
					"maxclass" : "comment",
					"numinlets" : 1,
					"numoutlets" : 0,
					"patching_rect" : [ 30.0, 225.0, 198.0, 20.0 ],
					"text" : "Output 1 or 0 When Toggle Is Set",
					"textcolor" : [ 0.2, 0.286275, 0.298039, 1.0 ]
				}

			}
, 			{
				"box" : 				{
					"comment" : "int Sets Toggle, bang Reverses It",
					"id" : "obj-7",
					"maxclass" : "inlet",
					"numinlets" : 0,
					"numoutlets" : 1,
					"outlettype" : [ "" ],
					"patching_rect" : [ 30.0, 90.0, 25.0, 25.0 ]
				}

			}
, 			{
				"box" : 				{
					"comment" : "Output 1 or 0 When Toggle Is Set",
					"id" : "obj-6",
					"maxclass" : "outlet",
					"numinlets" : 1,
					"numoutlets" : 0,
					"patching_rect" : [ 30.0, 195.0, 25.0, 25.0 ]
				}

			}
, 			{
				"box" : 				{
					"annotation" : "Toggle on/off (sends out 1 for on, 0 for off)",
					"bgcolor" : [ 0.2, 0.286275, 0.298039, 1.0 ],
					"bordercolor" : [ 0.301961, 0.337255, 0.403922, 0.0 ],
					"checkedcolor" : [ 0.980392, 0.988235, 0.976471, 1.0 ],
					"hint" : "Toggle on/off (sends out 1 for on, 0 for off)",
					"id" : "obj-5",
					"maxclass" : "toggle",
					"numinlets" : 1,
					"numoutlets" : 1,
					"outlettype" : [ "int" ],
					"parameter_enable" : 0,
					"patching_rect" : [ 30.0, 150.0, 30.0, 30.0 ],
					"presentation" : 1,
					"presentation_rect" : [ 26.0, 19.0, 30.0, 30.0 ],
					"prototypename" : "M4L.reversed",
					"varname" : "#1-nanotog"
				}

			}
, 			{
				"box" : 				{
					"fontname" : "Arial",
					"fontsize" : 12.0,
					"id" : "obj-3",
					"maxclass" : "newobj",
					"numinlets" : 2,
					"numoutlets" : 2,
					"outlettype" : [ "bang", "" ],
					"patching_rect" : [ 71.5, 120.0, 49.0, 20.0 ],
					"text" : "sel 127"
				}

			}
, 			{
				"box" : 				{
					"id" : "obj-1",
					"maxclass" : "bpatcher",
					"name" : "264.midi-learn.maxpat",
					"numinlets" : 2,
					"numoutlets" : 3,
					"outlettype" : [ "", "int", "int" ],
					"patching_rect" : [ 75.0, 90.0, 20.0, 20.0 ],
					"presentation" : 1,
					"presentation_rect" : [ 5.0, 20.0, 20.0, 20.0 ],
					"varname" : "264.midi-learn"
				}

			}
, 			{
				"box" : 				{
					"fontface" : 1,
					"fontname" : "Arial Black",
					"fontsize" : 12.0,
					"frgb" : 0.0,
					"id" : "obj-28",
					"maxclass" : "comment",
					"numinlets" : 1,
					"numoutlets" : 0,
					"patching_rect" : [ 15.0, 15.0, 102.0, 23.0 ],
					"presentation" : 1,
					"presentation_rect" : [ 12.0, -1.0, 51.0, 23.0 ],
					"text" : " T O G",
					"textcolor" : [ 0.2, 0.286275, 0.298039, 0.25 ]
				}

			}
, 			{
				"box" : 				{
					"background" : 1,
					"bgcolor" : [ 0.984314, 0.819608, 0.05098, 1.0 ],
					"hint" : "Output 1 or 0 When Toggle Is Set",
					"id" : "obj-29",
					"maxclass" : "panel",
					"numinlets" : 1,
					"numoutlets" : 0,
					"patching_rect" : [ 30.0, 225.0, 198.0, 20.0 ],
					"presentation" : 1,
					"presentation_rect" : [ 5.0, 54.0, 9.0, 5.0 ],
					"rounded" : 0
				}

			}
, 			{
				"box" : 				{
					"background" : 1,
					"bgcolor" : [ 0.984314, 0.819608, 0.05098, 1.0 ],
					"hint" : "int Sets Toggle, bang Reverses It",
					"id" : "obj-77",
					"maxclass" : "panel",
					"numinlets" : 1,
					"numoutlets" : 0,
					"patching_rect" : [ 30.0, 60.0, 198.0, 20.0 ],
					"presentation" : 1,
					"presentation_rect" : [ 5.0, 1.0, 9.0, 5.0 ],
					"rounded" : 0
				}

			}
, 			{
				"box" : 				{
					"background" : 1,
					"bgcolor" : [ 0.980392, 0.988235, 0.976471, 1.0 ],
					"border" : 1,
					"bordercolor" : [ 0.2, 0.286275, 0.298039, 0.2 ],
					"id" : "obj-39",
					"maxclass" : "panel",
					"numinlets" : 1,
					"numoutlets" : 0,
					"patching_rect" : [ 15.0, 45.0, 255.0, 210.0 ],
					"presentation" : 1,
					"presentation_rect" : [ 0.0, 0.0, 60.0, 60.0 ],
					"rounded" : 4
				}

			}
 ],
		"lines" : [ 			{
				"patchline" : 				{
					"destination" : [ "obj-3", 0 ],
					"disabled" : 0,
					"hidden" : 0,
					"source" : [ "obj-1", 0 ]
				}

			}
, 			{
				"patchline" : 				{
					"destination" : [ "obj-5", 0 ],
					"disabled" : 0,
					"hidden" : 0,
					"source" : [ "obj-3", 0 ]
				}

			}
, 			{
				"patchline" : 				{
					"destination" : [ "obj-6", 0 ],
					"disabled" : 0,
					"hidden" : 0,
					"source" : [ "obj-5", 0 ]
				}

			}
, 			{
				"patchline" : 				{
					"destination" : [ "obj-68", 0 ],
					"disabled" : 0,
					"hidden" : 0,
					"source" : [ "obj-69", 0 ]
				}

			}
, 			{
				"patchline" : 				{
					"destination" : [ "obj-5", 0 ],
					"disabled" : 0,
					"hidden" : 0,
					"source" : [ "obj-7", 0 ]
				}

			}
 ],
		"dependency_cache" : [ 			{
				"name" : "264.midi-learn.maxpat",
				"bootpath" : "/Users/chris/Documents/Max/Packages/264 Tools/patchers",
				"patcherrelativepath" : ".",
				"type" : "JSON",
				"implicit" : 1
			}
 ]
	}

}
